<svg version="1.2" xmlns="http://www.w3.org/2000/svg" viewBox="0 0 401 400" width="401" height="400">
	<title>3DRealmScape Logo</title>
	<defs>
		<clipPath clipPathUnits="userSpaceOnUse" id="cp1">
			<path d="m53.39 275.6c-46.95-81.32-19.17-185 62.15-231.94 81.31-46.95 184.99-19.17 231.94 62.14 46.94 81.32 19.16 185-62.15 231.94-81.32 46.95-184.99 19.17-231.94-62.14zm230.26-181.3l-50.34 28.94 41.91 24.8-2.19 145.96 52.79-30.48 0.22-144.82zm-80.5 46.27l-45.82 26.34 0.14 0.08-2.16 49.38 44.64 24.84 0.01-1.16 44.88-26.21 1.29-49.01zm48.77-64.53l-51.4-29.57-126.61 73.1 0.15 59.42 49.5 24.46 2.98-54.02-0.26-0.14zm-9.65 235.72l1.56-59.48-44.14 25.49 0.01-0.96-125.55-63.68 0.13 50.91 124.94 72.47v0.1z"/>
		</clipPath>
	</defs>
	<style>
		.s0 { fill: #3d77d4 } 
		.s1 { fill: #db162f } 
		.s2 { fill: #b23fa2 } 
	</style>
	<g id="segunda opcion">
		<g clip-path="url(#cp1)">
			<path id="Forma 4 copy" fill-rule="evenodd" class="s0" d="m53.4 275.6c-47-81.3-19.2-185 62.1-231.9 81.4-47 185-19.2 232 62.1 46.9 81.3 19.1 185-62.2 231.9-81.3 47-185 19.2-231.9-62.1zm230.2-181.3l-50.3 28.9 41.9 24.8-2.2 146 52.8-30.5 0.2-144.8zm-80.5 46.3l-45.8 26.3 0.2 0.1-2.2 49.4 44.6 24.8v-1.2l44.9-26.2 1.3-49zm48.8-64.5l-51.4-29.6-126.6 73.1 0.1 59.4 49.5 24.5 3-54-0.3-0.2zm-9.6 235.8l1.6-59.5-44.2 25.5v-1l-125.5-63.7 0.1 51 124.9 72.4v0.1z"/>
			<path id="Forma 4 copy 2" class="s1" d="m374.1 90.6l-173.2 100.3-3.1 187.1 172.5-74.7z"/>
			<path id="Forma 4 copy 3" class="s2" d="m198.7 371l1.3-180.7-172.2-93.4 3.4 213.3z"/>
		</g>
	</g>
</svg>