<svg version="1.2" xmlns="http://www.w3.org/2000/svg" viewBox="0 0 1000 400" width="1000" height="400">
	<title>3DRealmScape image completa</title>
	<style>
		.s0 { fill: #3d82f2 } 
		.s1 { fill: #b23fa2 } 
		.s2 { fill: #db162f } 
	</style>
	<g id="primera opcion">
		<path id="Forma 2" fill-rule="evenodd" class="s0" d="m322.5 115.4l-51.1 29.5-42.1-25 50.6-29zm-126.5 73l-43.2-24.6 46.1-26.4 43.2 24.3zm-127.1-72.1l127.3-73.5 51.7 29.8-126.3 73.6z"/>
		<path id="Forma 2 copy" fill-rule="evenodd" class="s1" d="m322.3 261l-53.1 30.6 2.2-146.7 51.1-29.5zm-127.3 73.5l0.4-59.2 44.5-25.6-1.6 59.8zm1.1-146.1l46.1-26.6-1.3 49.2-45.2 26.4z"/>
		<path id="Forma 3" fill-rule="evenodd" class="s2" d="m195.1 334.4l-125.7-72.9-0.2-51.2 126.3 64.1zm-126.1-218.2l52.9 30-3 54.3-49.7-24.6zm84 47.7l43 24.5-0.3 50.1-44.9-24.9z"/>
	</g>
	<g id="texto">
		<path id="3DRealmScape" class="s2" aria-label="3DRealmScape"  d="m401.8 191.2l6.9-6.9c3.7-3.7 6.2-7.6 6.2-13.1 0-4.6-1.8-9.7-9.7-13h-27.4v13.7h22.8l0.5 1.2-13.8 16v12.4h9.3c2.4 1.6 5.1 5.4 5.1 10.6 0 5.8-3.4 11.4-4.8 12.7h-19.6v13.2h26c5.7-3.6 14.1-12.5 14.1-25 0-9.3-3.6-17.5-15.6-21.3zm41.4 33.6v-52.8h10.5c4.8 5.8 6.7 16.7 6.7 26.1 0 9.5-2.5 21.3-6.9 26.7zm-15.5 13.3h34c10.2-11 15.2-24.3 15.2-40 0-16.9-4.9-29.8-16.2-39.8h-33z"/>
		<path id="3DRealmScape" class="s1" aria-label="3DRealmScape"  d="m485.8 158.2v79.8h15.4v-29.1h6.1l9.6 29.1h16l-11.5-32.7c6.5-3.9 12.1-11.1 12.1-22.5 0-13.2-8.7-21.7-17.4-24.6zm15.4 13.7h10.5c2.2 0.6 5.9 5.5 5.9 11.8 0 7.6-4.6 12-6.6 12.5h-9.8zm63.4 19.8c2.5 2.6 4.1 8.3 3.9 12.8h-16.3c0-4.4 1.5-9.9 3.9-12.8zm15.5 34.3h-21.6c-2.8-2.2-5.1-7.7-5.6-10.8h28.4c0.5-2.1 1-6.4 1-9.3 0-9.4-2.1-18.2-13.1-26.2h-18.4c-11.3 8.2-14.2 18.5-14.2 29 0 8.8 2.8 21.4 14.5 29.3h29zm37.3-14.4v14.4h-12c-1.5-1.5-2.5-4.5-2.5-7.3 0-3.2 1-5.4 2.3-7.1zm-24.5-31.9v12h20.6c2 0.8 3.8 2.8 3.8 5.9v5.7c-2.2-1.6-5.3-2.7-8.3-2.7h-10.7c-7.7 5.4-9.9 11.8-9.9 18.9 0 7.5 2.9 14 9.7 18.4h7.2c6.3 0 9.5-1.3 12.5-4.1l2 4.1h13c-0.3-5.9-0.4-11.5-0.4-17.3v-17.1c0-10.9-1.5-18-11.2-23.8zm64.3-21.5h-15v79.7h15zm35.1 21.6c-6.4 0-8.4 1.4-11.4 4.1l-2-4.1h-11.9v58.2h15.2v-46.2h8.7c2.1 3.3 3 8.4 3 15.6v30.6h15.2v-32.9c0-5-0.6-9.6-2.6-13.3h11c2 3.3 3.2 8.4 3.2 15.6v30.6h15.1v-29.5c0-12.1-1.7-19.9-8.6-28.7h-12.7c-6.4 0-8.4 1.4-11.3 4l-2.8-4z"/>
		<path id="3DRealmScape" class="s0" aria-label="3DRealmScape"  d="m753.1 158.2c-7.9 3.3-9.9 10.6-9.9 16.1 0 3.7 1.8 8.3 4.4 13l20.6 36.8-0.4 0.7h-23.6v13.2h30.2c4.1-2.8 7.7-8.4 7.7-16.9 0-4.3-2.9-10.3-5.6-15.2l-18.3-33.3 0.4-0.7h21.9v-13.7zm49.9 50.2c0-7.6 2.3-13.3 5.6-16.7h17.1v-11.9h-24.1c-11.9 8-14.3 18.9-14.3 28.3 0 9.8 2.4 21.1 13.4 29.9h25v-12h-17.1c-3.8-4.1-5.6-11.7-5.6-17.6zm57.2 3.3v14.3h-12.1c-1.5-1.4-2.5-4.4-2.5-7.3 0-3.2 1-5.3 2.4-7zm-24.5-31.9v11.9h20.5c2.1 0.8 3.9 2.9 3.9 6v5.7c-2.3-1.6-5.4-2.8-8.3-2.8h-10.7c-7.8 5.5-10 11.9-10 18.9 0 7.6 3 14.1 9.7 18.5h7.2c6.4 0 9.6-1.4 12.6-4.1l2 4.1h13c-0.3-5.9-0.5-11.5-0.5-17.3v-17.1c0-11-1.4-18-11.1-23.8zm49.2 0v75.3h15.2v-20.3c2.1 1.9 5.3 3.2 9.5 3.2h9.7c6.8-6.4 11.4-14.9 11.4-29.9 0-11.9-4-22.2-10.2-28.3h-10.3c-6.4 0-8.4 1.3-11.4 4.1l-1.7-4.1zm15.2 46.2v-34.3h10.8c2.4 3.7 4.3 9.7 4.3 16.9 0 7.6-1.8 13.3-4.2 17.4zm65.2-34.3c2.5 2.6 4.1 8.3 3.9 12.8h-16.3c0-4.3 1.5-9.9 3.9-12.8zm15.5 34.3h-21.6c-2.8-2.1-5.1-7.7-5.6-10.8h28.4c0.5-2 1-6.4 1-9.2 0-9.5-2.1-18.3-13.1-26.2h-18.4c-11.3 8.2-14.2 18.4-14.2 28.9 0 8.8 2.8 21.4 14.5 29.3h29z"/>
	</g>
</svg>